<svg width="32" height="32" viewBox="0 0 32 32" fill="none" xmlns="http://www.w3.org/2000/svg">
<path fill-rule="evenodd" clip-rule="evenodd" d="M19.8574 5.33333V4H5.3335V21.9296L5.3535 22.2947C5.60451 26.0121 7.22714 28 10.1618 28H25.3335H26.0002H26.6668V18.6667H25.3335V26.6667H10.1618L9.93669 26.6614C7.87143 26.5622 6.80113 25.0692 6.66623 21.9012L6.66683 5.33333H19.8574ZM14.6668 18.6667H16.6399L17.0676 18.239L15.0945 16.2659L14.6668 16.6936V18.6667ZM25.3335 9.9731L18.2392 17.0674L16.2661 15.0943L23.3604 8C24.3859 8.13276 25.2007 8.94764 25.3335 9.9731ZM17.3425 20H13.3335V15.991L22.6578 6.66667H22.9644C25.0022 6.66667 26.6639 8.32537 26.6668 10.3647V10.6757L17.3425 20Z" fill="#2C2A29"/>
</svg>
