<svg width="18" height="15" viewBox="0 0 18 15" fill="none" xmlns="http://www.w3.org/2000/svg">
<path fill-rule="evenodd" clip-rule="evenodd" d="M15.6136 7.74651L16.5787 6.78087L17.1749 7.37624L15.1926 9.35855L13.2103 7.37624L13.8065 6.78087L14.7715 7.74651V7.50002C14.7715 4.2495 12.1273 1.60529 8.87679 1.60529C7.30205 1.60529 5.82163 2.21834 4.70836 3.3316L4.113 2.73624C5.38542 1.46381 7.07721 0.763184 8.87679 0.763184C12.5913 0.763184 15.6136 3.7855 15.6136 7.50002V7.74651ZM3.94752 8.21876L2.98205 7.25329V7.50002C2.98205 10.7506 5.62626 13.3948 8.87679 13.3948C10.4515 13.3948 11.9319 12.7817 13.0452 11.6684L13.6406 12.2638C12.3682 13.5362 10.6764 14.2369 8.87679 14.2369C5.16226 14.2369 2.13994 11.2146 2.13994 7.50002V7.25387L1.17447 8.21876L0.579102 7.62339L2.56142 5.64108L4.54289 7.62339L3.94752 8.21876Z" fill="#2C2A29"/>
</svg>
