<svg width="32" height="32" viewBox="0 0 32 32" fill="none" xmlns="http://www.w3.org/2000/svg">
<path fill-rule="evenodd" clip-rule="evenodd" d="M6.66683 13.3327C6.66683 8.18602 10.8535 3.99935 16.0002 3.99935C21.1468 3.99935 25.3335 8.18602 25.3335 13.3327C25.3335 20.6087 17.7762 26.554 16.0002 27.85C14.2228 26.5553 6.66683 20.618 6.66683 13.3327ZM15.6308 29.2207L16.0002 29.4674L16.3695 29.2207C16.7908 28.9407 26.6668 22.2527 26.6668 13.3327C26.6668 7.45135 21.8815 2.66602 16.0002 2.66602C10.1188 2.66602 5.3335 7.45135 5.3335 13.3327C5.3335 22.2527 15.2095 28.9407 15.6308 29.2207ZM12.0002 13.3327C12.0002 11.1273 13.7948 9.33268 16.0002 9.33268C18.2055 9.33268 20.0002 11.1273 20.0002 13.3327C20.0002 15.538 18.2055 17.3327 16.0002 17.3327C13.7948 17.3327 12.0002 15.538 12.0002 13.3327ZM10.6668 13.3327C10.6668 16.274 13.0588 18.666 16.0002 18.666C18.9415 18.666 21.3335 16.274 21.3335 13.3327C21.3335 10.3913 18.9415 7.99935 16.0002 7.99935C13.0588 7.99935 10.6668 10.3913 10.6668 13.3327Z" fill="#2C2A29"/>
</svg>
