<svg width="32" height="32" viewBox="0 0 32 32" fill="none" xmlns="http://www.w3.org/2000/svg">
<path fill-rule="evenodd" clip-rule="evenodd" d="M21.7067 24C22.1733 23.2133 23.0133 22.6667 24 22.6667C25.4667 22.6667 26.6667 23.8667 26.6667 25.3333C26.6667 26.8 25.4667 28 24 28C22.5333 28 21.3333 26.8 21.3333 25.3333H14.6667C14.6667 26.8 13.4667 28 12 28C10.5333 28 9.33333 26.8 9.33333 25.3333C9.33333 24.3733 9.84 23.5467 10.6 23.08L7.02667 6.38667C6.89333 5.77333 6.34667 5.33333 5.72 5.33333H4V4H5.72C6.96 4 8.06667 4.88 8.32 6.10667L9.30667 10.6667H12.0667H18H23.9333H28.2133L25.72 19.4C25.4 20.5333 24.3467 21.3333 23.16 21.3333H11.5867L11.88 22.68C11.9 22.68 11.92 22.6767 11.94 22.6733L11.94 22.6733L11.94 22.6733C11.96 22.67 11.98 22.6667 12 22.6667C12.9733 22.6667 13.8267 23.2133 14.2933 24H21.7067ZM18 12H12.0667H9.58667L11.3067 20H23.16C23.7467 20 24.28 19.6 24.44 19.0267L26.4533 12H23.9333H18ZM10.6667 25.3333C10.6667 26.0667 11.2667 26.6667 12 26.6667C12.7333 26.6667 13.3333 26.0667 13.3333 25.3333C13.3333 24.6 12.7333 24 12 24C11.2667 24 10.6667 24.6 10.6667 25.3333ZM22.6667 25.3333C22.6667 26.0667 23.2667 26.6667 24 26.6667C24.7333 26.6667 25.3333 26.0667 25.3333 25.3333C25.3333 24.6 24.7333 24 24 24C23.2667 24 22.6667 24.6 22.6667 25.3333ZM14.6667 13.3333H13.3333V18.6667H14.6667V13.3333ZM18.6667 13.3333V18.6667H17.3333V13.3333H18.6667ZM22.6667 13.3333H21.3333V18.6667H22.6667V13.3333Z" fill="#2C2A29"/>
</svg>
