<svg width="32" height="32" viewBox="0 0 32 32" fill="none" xmlns="http://www.w3.org/2000/svg">
<path fill-rule="evenodd" clip-rule="evenodd" d="M12 9.33333C12 7.128 13.7947 5.33333 16 5.33333C18.2053 5.33333 20 7.128 20 9.33333V11.3053C20 13.2733 19.0227 17.3347 16 17.3347C12.9773 17.3347 12 13.2733 12 11.3053V9.33333ZM10.6667 11.3053C10.6667 14.3627 12.3213 18.668 16 18.668C19.6787 18.668 21.3333 14.3627 21.3333 11.3053V9.33333C21.3333 6.392 18.9413 4 16 4C13.0587 4 10.6667 6.392 10.6667 9.33333V11.3053ZM26.6667 26V26.6667H5.33333V26C5.33333 23.34 7.10933 20.9973 9.62133 20.2493C10.9133 22.5453 13.36 24 16 24C18.64 24 21.0867 22.5453 22.3787 20.2493C24.8907 20.9973 26.6667 23.34 26.6667 26ZM4 28H28V26C28 22.5427 25.5453 19.524 22.1627 18.8213L21.6467 18.7147L21.4227 19.192C20.4373 21.3027 18.308 22.6667 16 22.6667C13.692 22.6667 11.5627 21.3027 10.5773 19.192L10.3533 18.7147L9.83733 18.8213C6.45467 19.524 4 22.5427 4 26V28Z" fill="#2C2A29"/>
</svg>
